<svg xmlns="http://www.w3.org/2000/svg" viewBox="0 0 24 24"><path fill="#181616" d="M12 .5C5.648.5.5 5.648.5 12c0 5.086 3.292 9.397 7.865 10.914.575.106.785-.25.785-.556 0-.274-.01-1-.016-1.963-3.2.697-3.877-1.542-3.877-1.542-.523-1.328-1.276-1.682-1.276-1.682-1.044-.714.08-.699.08-.699 1.155.081 1.763 1.187 1.763 1.187 1.026 1.758 2.693 1.25 3.35.957.104-.744.402-1.25.732-1.538-2.553-.29-5.238-1.277-5.238-5.684 0-1.256.449-2.282 1.185-3.088-.119-.289-.513-1.453.113-3.028 0 0 .967-.31 3.17 1.18a11.04 11.04 0 0 1 2.887-.388c.98.004 1.968.132 2.887.388 2.2-1.49 3.166-1.18 3.166-1.18.628 1.575.234 2.739.115 3.028.739.806 1.183 1.832 1.183 3.088 0 4.418-2.69 5.39-5.253 5.673.413.355.78 1.053.78 2.12 0 1.532-.014 2.767-.014 3.146 0 .31.207.668.79.555C20.712 21.395 24 17.085 24 12 24 5.648 18.352.5 12 .5z"/></svg>